<?xml version="1.0" standalone="no"?>
<!DOCTYPE svg PUBLIC "-//W3C//DTD SVG 20010904//EN"
 "http://www.w3.org/TR/2001/REC-SVG-20010904/DTD/svg10.dtd">
<svg version="1.0" xmlns="http://www.w3.org/2000/svg"
 width="512.000000pt" height="512.000000pt" viewBox="0 0 512.000000 512.000000"
 preserveAspectRatio="xMidYMid meet">
<metadata>
Created by potrace 1.14, written by Peter Selinger 2001-2017
</metadata>
<g transform="translate(0.000000,512.000000) scale(0.100000,-0.100000)"
fill="#000000" stroke="none">
<path d="M1261 5098 c-125 -25 -220 -66 -306 -130 -117 -89 -187 -188 -235
-337 l-27 -83 -64 -26 c-88 -35 -161 -83 -228 -150 -167 -167 -230 -377 -132
-435 22 -13 46 -15 132 -10 104 6 183 7 271 4 46 -1 48 -2 57 -38 6 -21 12
-51 15 -68 3 -16 10 -53 15 -81 33 -174 31 -388 -9 -714 -5 -47 -12 -112 -16
-145 -3 -33 -8 -73 -10 -90 -13 -73 -12 -485 1 -585 33 -259 82 -471 143 -621
138 -338 420 -627 782 -802 58 -27 107 -54 110 -58 8 -12 5 -302 -3 -316 -4
-6 -19 -14 -34 -18 -16 -3 -70 -27 -121 -52 -153 -74 -242 -174 -227 -252 7
-36 33 -71 61 -81 15 -6 280 -10 659 -10 l633 0 31 35 c23 26 31 45 31 73 0
81 -77 186 -191 264 l-48 33 -1 113 c0 82 3 114 13 116 6 2 41 9 77 16 136 25
288 86 418 167 l73 45 182 -90 c100 -49 218 -106 262 -127 44 -20 112 -51 150
-69 72 -34 445 -186 468 -190 6 -2 19 -6 27 -9 55 -22 202 -62 295 -81 121
-25 233 -27 286 -6 43 17 86 61 95 95 44 177 -307 622 -976 1237 -52 48 -104
104 -115 125 -47 93 -172 314 -212 376 -24 37 -43 70 -43 72 0 9 -250 383
-266 399 -8 8 -14 17 -14 20 0 3 -19 32 -43 63 -24 32 -70 94 -102 138 -33 44
-62 82 -65 85 -3 3 -43 52 -89 109 -170 209 -322 362 -436 436 -44 29 -86 59
-92 67 -28 33 -52 131 -68 273 -3 28 -8 70 -11 95 -3 25 -7 65 -9 90 -3 25 -7
59 -10 75 -3 17 -7 48 -10 70 -8 51 -14 85 -19 110 -21 94 -41 167 -67 242
-119 340 -326 560 -594 628 -101 27 -275 28 -394 3z"/>
</g>
</svg>
